<svg width="236" height="464" viewBox="0 0 236 464" fill="none" xmlns="http://www.w3.org/2000/svg">
<path fill-rule="evenodd" clip-rule="evenodd" d="M0.417969 463.739C114.584 463.738 207.134 371.188 207.134 257.022C207.134 142.856 114.584 50.3056 0.417969 50.3047V463.739Z" fill="black"/>
<ellipse cx="67.8377" cy="143.104" rx="17.9198" ry="18.5598" fill="white"/>
<circle cx="188.156" cy="136.063" r="47.3594" fill="black"/>
<rect y="439.419" width="235.517" height="24.3197" fill="black"/>
<rect x="82.2617" width="91.7057" height="91.7057" transform="rotate(24.8183 82.2617 0)" fill="black"/>
<rect x="125.762" y="55.291" width="8.33688" height="40.6423" transform="rotate(115.301 125.762 55.291)" fill="white"/>
<rect x="125.762" y="55.291" width="8.33688" height="40.6423" transform="rotate(115.301 125.762 55.291)" fill="white"/>
<rect x="125.762" y="55.291" width="8.33688" height="40.6423" transform="rotate(115.301 125.762 55.291)" fill="white"/>
<rect x="110.523" y="30.2212" width="8.33688" height="40.6423" transform="rotate(25.3014 110.523 30.2212)" fill="white"/>
<rect x="110.523" y="30.2212" width="8.33688" height="40.6423" transform="rotate(25.3014 110.523 30.2212)" fill="white"/>
<rect x="110.523" y="30.2212" width="8.33688" height="40.6423" transform="rotate(25.3014 110.523 30.2212)" fill="white"/>
</svg>
