<svg width="271" height="432" viewBox="0 0 271 432" fill="none" xmlns="http://www.w3.org/2000/svg">
<rect x="98" y="282.376" width="112" height="149" fill="black"/>
<rect x="110" y="302.376" width="88" height="6" fill="#FFFDEF"/>
<rect x="110" y="302.376" width="88" height="6" fill="#FFFDEF"/>
<rect x="110" y="318.376" width="88" height="6" fill="#FFFDEF"/>
<rect x="110" y="318.376" width="88" height="6" fill="#FFFDEF"/>
<rect x="110" y="334.376" width="88" height="6" fill="#FFFDEF"/>
<rect x="110" y="334.376" width="88" height="6" fill="#FFFDEF"/>
<rect x="110" y="350.376" width="88" height="6" fill="#FFFDEF"/>
<rect x="110" y="350.376" width="88" height="6" fill="#FFFDEF"/>
<rect x="110" y="366.376" width="88" height="6" fill="#FFFDEF"/>
<rect x="110" y="366.376" width="88" height="6" fill="#FFFDEF"/>
<rect x="159" y="0.376221" width="112" height="149" fill="black"/>
<rect x="171" y="20.3762" width="88" height="6" fill="#FFFDEF"/>
<rect x="171" y="20.3762" width="88" height="6" fill="#FFFDEF"/>
<rect x="171" y="36.3762" width="88" height="6" fill="#FFFDEF"/>
<rect x="171" y="36.3762" width="88" height="6" fill="#FFFDEF"/>
<rect x="171" y="52.3762" width="88" height="6" fill="#FFFDEF"/>
<rect x="171" y="52.3762" width="88" height="6" fill="#FFFDEF"/>
<rect x="171" y="68.3762" width="88" height="6" fill="#FFFDEF"/>
<rect x="171" y="68.3762" width="88" height="6" fill="#FFFDEF"/>
<rect x="171" y="84.3762" width="88" height="6" fill="#FFFDEF"/>
<rect x="171" y="84.3762" width="88" height="6" fill="#FFFDEF"/>
<rect y="149.376" width="73" height="97.1161" fill="black"/>
<rect x="7.82031" y="162.412" width="57.3571" height="3.91071" fill="#FFFDEF"/>
<rect x="7.82031" y="162.412" width="57.3571" height="3.91071" fill="#FFFDEF"/>
<rect x="7.82031" y="172.841" width="57.3571" height="3.91071" fill="#FFFDEF"/>
<rect x="7.82031" y="172.841" width="57.3571" height="3.91071" fill="#FFFDEF"/>
<rect x="7.82031" y="183.269" width="57.3571" height="3.91071" fill="#FFFDEF"/>
<rect x="7.82031" y="183.269" width="57.3571" height="3.91071" fill="#FFFDEF"/>
<rect x="7.82031" y="193.698" width="57.3571" height="3.91071" fill="#FFFDEF"/>
<rect x="7.82031" y="193.698" width="57.3571" height="3.91071" fill="#FFFDEF"/>
<rect x="7.82031" y="204.126" width="57.3571" height="3.91071" fill="#FFFDEF"/>
<rect x="7.82031" y="204.126" width="57.3571" height="3.91071" fill="#FFFDEF"/>
</svg>
